<svg xmlns="http://www.w3.org/2000/svg" width="182" height="50" viewBox="0 0 182 50">
    <defs>
        <linearGradient id="tkzmx1nzxa" x1="25.065%" x2="50%" y1="50%" y2="62.48%">
            <stop offset="0%" stop-color="#1A45C2"/>
            <stop offset="100%" stop-color="#001F9C"/>
        </linearGradient>
        <linearGradient id="0u4hymggdb" x1="50%" x2="74.925%" y1="62.483%" y2="50%">
            <stop offset="0%" stop-color="#001F9C"/>
            <stop offset="100%" stop-color="#1A45C2"/>
        </linearGradient>
    </defs>
    <g fill="none" fill-rule="evenodd">
        <g>
            <g>
                <g>
                    <path fill="url(#tkzmx1nzxa)" d="M37.49 12.51L24.948 25.08 12.523 37.49 -12.51 12.51z" transform="translate(-709 -35) translate(709 35) matrix(0 1 1 0 -12.51 12.51)"/>
                    <path fill="url(#0u4hymggdb)" d="M56.215 31.254L43.715 43.746 31.215 31.254z" transform="translate(-709 -35) translate(709 35) rotate(90 43.715 37.5)"/>
                    <path fill="#1A45C2" d="M56.229 31.249L43.729 43.732 6.229 6.268 31.229 6.268z" transform="translate(-709 -35) translate(709 35) rotate(90 31.229 25)"/>
                </g>
                <path fill="#000" fill-rule="nonzero" d="M104.119 39.881V27.013c0-5.347-3.736-9.042-8.992-9.042-3.301 0-6.646 1.782-7.95 5.303-1.26-3.825-4.69-5.303-7.949-5.303-2.78 0-5.516 1.173-6.993 4l-.044-3.566h-1.998v21.476h2.129V27.143c0-4.13 2.78-7.13 6.863-7.13s6.907 3 6.907 7.13v12.738h2.128V27.143c0-4.13 2.824-7.173 6.907-7.173s6.863 2.913 6.863 7.043v12.868h2.129zm23.737-21.476V23.1c-1.78-3.347-5.3-4.955-8.775-4.955-5.994 0-10.903 4.434-10.903 10.998 0 6.565 4.909 11.086 10.903 11.086 3.476 0 6.69-1.565 8.775-4.913v4.565h2.129V18.405h-2.129zm-8.775 1.783c11.946 0 11.946 17.954 0 17.954-4.865 0-8.774-3.608-8.774-8.999 0-5.39 3.91-8.955 8.774-8.955zm18.047-1.87v21.563H135V18.318h2.128zm-2.736-6.912c0-2.26 3.431-2.26 3.431 0s-3.431 2.26-3.431 0zm26.56 7V23.1c-1.78-3.347-5.299-4.955-8.774-4.955-5.995 0-10.903 4.434-10.903 10.998 0 6.565 4.908 11.086 10.903 11.086 3.475 0 6.69-1.565 8.775-4.913v4.565h2.128V18.405h-2.128zm-8.774 1.782c11.946 0 11.946 17.954 0 17.954-4.865 0-8.775-3.608-8.775-8.999 0-5.39 3.91-8.955 8.775-8.955zm15.918-1.783h1.999l.086 3.826c1.318-2.85 4.26-3.994 6.95-4.041l.174-.002c1.608-.043 3.171.391 4.605 1.26l-.956 1.74c-1.13-.696-2.389-1-3.649-1-3.996.043-7.08 3.26-7.08 7.173v12.52h-2.129V18.405z" transform="translate(-709 -35) translate(709 35)"/>
            </g>
        </g>
    </g>
</svg>
